# xmcd
#
# Track frame offsets:
#	150
#	17050
#	29757
#	41452
#	59162
#	72012
#	83775
#	97085
#	108932
#	122952
#	135790
#	147425
#	158442
#	172232
#	185167
#	198310
#	211742
#	224010
#	236912
#	251310
#	264672
#	278802
#
# Disc length: 3936 seconds
#
# Revision: 0
# Processed by: cddbd v1.5.2PL0 Copyright (c) Steve Scherf et al.
# Submitted via: audiograbber 1.83.01
#
DISCID=4f0f5e16
DTITLE=Various Artist - Time-Life - Contemporary Country - The '70s - Pure Gol
DTITLE=d
DYEAR=1900
DGENRE=Country
TTITLE0=Johnny Cash - (Ghost) Riders In The Sky
TTITLE1=Merle Haggard - It's Been A Great Afternoon
TTITLE2=Emmylou Harris - If I Could Only Win Your Love
TTITLE3=Willie Nelson - All Of Me
TTITLE4=Mickey Gilley - Room Full Of Roses
TTITLE5=Marty Robbins - Among My Souvenirs
TTITLE6=Oak Ridge Boys - You're The One
TTITLE7=Loretta Lynn - Rated X
TTITLE8=Donna Fargo - Don't Be Angry
TTITLE9=Conway Twitty - I May Never Get To Heaven
TTITLE10=George Jones - A Picture Of Me (Without You)
TTITLE11=Buck Owens - Ruby (Are You Mad)
TTITLE12=Mary Kay Place (As Loretta Haggers) - Baby Boy
TTITLE13=Johnny Russell - Rednecks, White Socks And Blue Ribbon Beer
TTITLE14=Bill Anderson and Mary Lou Turner - Sometimes
TTITLE15=Loretta Lynn and Conway Twitty - Feelins'
TTITLE16=John Conlee - Before My Time
TTITLE17=Statler Brothers - I'll Go To My Grave Loving You
TTITLE18=Jerry Lee Lewis - Me And Bobby McGee
TTITLE19=Don Williams - Say It Again
TTITLE20=Billy 'Crash' Craddock - Broken Down In Tiny Pieces
TTITLE21=Freddy Fender - Secret Love
EXTD=
EXTT0=
EXTT1=
EXTT2=
EXTT3=
EXTT4=
EXTT5=
EXTT6=
EXTT7=
EXTT8=
EXTT9=
EXTT10=
EXTT11=
EXTT12=
EXTT13=
EXTT14=
EXTT15=
EXTT16=
EXTT17=
EXTT18=
EXTT19=
EXTT20=
EXTT21=
PLAYORDER=
